Coordinates
version=1
nRows=4
nColumns=114
inDegrees=yes

Units are S.I. units (second, meters, Newtons, ...)
If the header above contains a line with 'inDegrees', this indicates whether rotational values are in degrees (yes) or radians (no).

endheader 
time	pelvis_tilt	pelvis_list	pelvis_rotation	pelvis_tx	pelvis_ty	pelvis_tz	hip_flexion_l	hip_adduction_l	hip_rotation_l	hip_flexion_r	hip_adduction_r	hip_rotation_r	knee_angle_l	knee_angle_r	ankle_angle_l	ankle_angle_r	subtalar_angle_l	subtalar_angle_r	mtp_angle_l	mtp_angle_r	lumbar_extension	lumbar_bending	lumbar_rotation	arm_flex_l	arm_add_l	arm_rot_l	arm_flex_r	arm_add_r	arm_rot_r	elbow_flex_l	elbow_flex_r	pro_sup_l	pro_sup_r	addbrev_l/activation	addlong_l/activation	addmagDist_l/activation	addmagIsch_l/activation	addmagMid_l/activation	addmagProx_l/activation	bflh_l/activation	bfsh_l/activation	edl_l/activation	ehl_l/activation	fdl_l/activation	fhl_l/activation	gaslat_l/activation	gasmed_l/activation	glmax1_l/activation	glmax2_l/activation	glmax3_l/activation	glmed1_l/activation	glmed2_l/activation	glmed3_l/activation	glmin1_l/activation	glmin2_l/activation	glmin3_l/activation	grac_l/activation	iliacus_l/activation	perbrev_l/activation	perlong_l/activation	piri_l/activation	psoas_l/activation	recfem_l/activation	sart_l/activation	semimem_l/activation	semiten_l/activation	soleus_l/activation	tfl_l/activation	tibant_l/activation	tibpost_l/activation	vasint_l/activation	vaslat_l/activation	vasmed_l/activation	addbrev_r/activation	addlong_r/activation	addmagDist_r/activation	addmagIsch_r/activation	addmagMid_r/activation	addmagProx_r/activation	bflh_r/activation	bfsh_r/activation	edl_r/activation	ehl_r/activation	fdl_r/activation	fhl_r/activation	gaslat_r/activation	gasmed_r/activation	glmax1_r/activation	glmax2_r/activation	glmax3_r/activation	glmed1_r/activation	glmed2_r/activation	glmed3_r/activation	glmin1_r/activation	glmin2_r/activation	glmin3_r/activation	grac_r/activation	iliacus_r/activation	perbrev_r/activation	perlong_r/activation	piri_r/activation	psoas_r/activation	recfem_r/activation	sart_r/activation	semimem_r/activation	semiten_r/activation	soleus_r/activation	tfl_r/activation	tibant_r/activation	tibpost_r/activation	vasint_r/activation	vaslat_r/activation	vasmed_r/activation	
          3.58000000	         -3.14569768	         -2.91371382	          8.74968159	          1.71241846	          1.13284078	          0.00223077	          2.84240600	         -3.09447447	        -16.65959830	          7.94872317	         -5.41392001	        -17.69891888	          7.51453798	          4.65049549	        -34.48375653	        -36.83984965	         -8.76680488	         -4.13078945	         -8.16588748	         -3.05554390	          3.59321631	          2.44307965	         -2.82422025	         23.49691539	        -64.31541249	        -26.37249261	         50.88993049	        -53.60378868	         13.68541531	        133.43380114	        123.95159766	         84.95338495	         96.88793555	          0.12785563	          0.16312050	          0.04297499	          0.03681531	          0.06175231	          0.13975860	          0.07619935	          0.51955489	          0.55077502	          0.27576783	          0.13148379	          0.10435727	          0.28120612	          0.30127036	          0.05088895	          0.03022630	          0.02505907	          0.19848084	          0.14826300	          0.16042089	          0.22310780	          0.25934847	          0.24891563	          0.20671045	          0.54791684	          0.29400982	          0.22130062	          0.20662557	          0.50775962	          0.12161178	          0.47468084	          0.21116238	          0.18237733	          0.18273792	          0.34740949	          0.61519812	          0.07202507	          0.06162393	          0.12699443	          0.06045467	          0.13923421	          0.15420549	          0.07695077	          0.06383192	          0.10553148	          0.14788447	          0.09609239	          0.34093604	          0.44502883	          0.20671147	          0.13164574	          0.11587602	          0.19600705	          0.18151126	          0.09014335	          0.05609897	          0.04817205	          0.15086431	          0.14069510	          0.13957507	          0.18248225	          0.18486997	          0.17595585	          0.17436945	          0.33346556	          0.17170714	          0.17917953	          0.17162470	          0.31108101	          0.10094792	          0.30775725	          0.11723154	          0.15983785	          0.14225291	          0.26283006	          0.35415648	          0.08755680	          0.04287562	          0.02860583	          0.03410713	
          3.60000000	         -3.05273037	         -3.10301436	          8.99024106	          1.70829108	          1.15800860	          0.00060083	          3.85327257	         -4.06304127	        -14.91910561	          8.58012064	         -5.28672442	        -16.92387752	          8.34936320	          5.79732309	        -35.03632606	        -37.98445780	         -7.83349421	         -3.65765683	         -6.33987046	         -2.35426883	          2.72958725	          2.47879888	         -3.07720419	         26.79246672	        -63.75252152	        -24.56288900	         56.22755049	        -52.78701813	         16.16687745	        133.65848245	        122.44650087	         85.40551387	         97.15107928	          0.11772697	          0.13288150	          0.04844801	          0.04177204	          0.06679262	          0.12687436	          0.08589579	          0.42880830	          0.53535379	          0.24858522	          0.12841581	          0.09645554	          0.21599721	          0.21407364	          0.06447568	          0.03713727	          0.02779768	          0.26478121	          0.17476457	          0.15328919	          0.22919990	          0.24476845	          0.23241309	          0.18233963	          0.42759570	          0.21466654	          0.19690741	          0.18193694	          0.38658976	          0.08306753	          0.42306430	          0.23428060	          0.18126102	          0.12847466	          0.29568838	          0.58544005	          0.06554502	          0.04293905	          0.08499335	          0.04142149	          0.11617280	          0.11726644	          0.06539777	          0.05444399	          0.08767965	          0.13319184	          0.07300877	          0.30206975	          0.49534743	          0.21922920	          0.12181535	          0.09848223	          0.14606588	          0.12654159	          0.09105285	          0.05421454	          0.04185597	          0.17033897	          0.17582946	          0.17920860	          0.18483728	          0.21648193	          0.22997217	          0.15231698	          0.32377286	          0.17320976	          0.17214707	          0.21849897	          0.30889555	          0.11197937	          0.33558534	          0.08369375	          0.12669963	          0.11493206	          0.29711291	          0.42627852	          0.07016632	          0.03829173	          0.02134894	          0.02959089	
          3.62000000	         -2.84134662	         -3.17060953	          9.23011427	          1.70467194	          1.17943955	         -0.00112507	          5.09850510	         -5.01005258	        -12.85590602	          9.30683065	         -5.37872461	        -14.85217233	         10.90369691	          8.30148321	        -34.00412399	        -36.90390896	         -6.81066082	         -2.88764737	         -4.93306261	         -1.81507592	          1.85033119	          2.40902620	         -3.27775361	         30.08188780	        -63.07741370	        -22.33769335	         61.08043775	        -51.84507749	         18.77391276	        133.65701632	        121.18828670	         85.95204305	         97.68894066	          0.11404259	          0.11945781	          0.05740632	          0.05113268	          0.07440394	          0.12038782	          0.08904443	          0.35932521	          0.50193523	          0.23375248	          0.12603459	          0.09570423	          0.15525816	          0.14737553	          0.08188677	          0.04824113	          0.03315090	          0.30679281	          0.19791415	          0.15425175	          0.23015031	          0.23732278	          0.21821277	          0.16903263	          0.34742793	          0.19617598	          0.17797805	          0.17405672	          0.30840981	          0.05981579	          0.36155332	          0.18355787	          0.17703244	          0.09151404	          0.27900300	          0.55583442	          0.06340442	          0.03232002	          0.05712361	          0.02974684	          0.10138118	          0.09605584	          0.05706025	          0.04794883	          0.07515865	          0.12284977	          0.05947383	          0.26604867	          0.48900844	          0.22382582	          0.11603882	          0.08479419	          0.10699504	          0.08852319	          0.09080785	          0.05215350	          0.03710214	          0.18762275	          0.19944442	          0.21518646	          0.18990492	          0.23355409	          0.25143029	          0.13977639	          0.34516495	          0.16880058	          0.15723427	          0.25152606	          0.32682728	          0.14285645	          0.35383277	          0.06409175	          0.10720722	          0.08758773	          0.29904556	          0.47862636	          0.05849734	          0.03562380	          0.01766402	          0.02747229	
          3.64000000	         -2.63454598	         -3.09442588	          9.35173343	          1.70225964	          1.19693517	         -0.00322659	          6.25519443	         -5.77055160	        -10.76185759	          9.98731007	         -5.72633881	        -12.35091452	         14.36695933	         11.20022373	        -32.09655070	        -34.58086479	         -5.69079553	         -1.98209909	         -3.84363803	         -1.40018606	          1.20159321	          2.25964580	         -3.34444621	         32.93949172	        -62.46903281	        -20.18220333	         65.17080869	        -50.86599716	         21.30770002	        133.41899868	        120.20927637	         86.49302390	         98.29986220	          0.11945309	          0.12786033	          0.06408616	          0.05675131	          0.08228143	          0.12220607	          0.07054225	          0.28663747	          0.45522027	          0.22535210	          0.12417231	          0.08821855	          0.11243140	          0.10206210	          0.08775374	          0.05234165	          0.03689507	          0.27633603	          0.18747213	          0.14824052	          0.22710448	          0.22801831	          0.20691927	          0.15749973	          0.32785353	          0.17624002	          0.16694935	          0.17149461	          0.29081145	          0.08542667	          0.31931322	          0.12750630	          0.14004084	          0.06586856	          0.27662267	          0.51147883	          0.06202732	          0.03294113	          0.03885330	          0.02676936	          0.10448942	          0.10160845	          0.05634633	          0.04759753	          0.07395885	          0.12608467	          0.05527029	          0.24440670	          0.43850764	          0.22122402	          0.11524002	          0.07640845	          0.07927605	          0.06205873	          0.09156376	          0.05244320	          0.03683149	          0.17428898	          0.18446521	          0.19913867	          0.18367247	          0.21810769	          0.23104796	          0.14048679	          0.33640796	          0.16169348	          0.14339947	          0.25993395	          0.32960917	          0.15651407	          0.33140708	          0.05636877	          0.10142755	          0.06535578	          0.27230318	          0.47298838	          0.05293525	          0.03630599	          0.01703835	          0.02810554	
